<svg xmlns="http://www.w3.org/2000/svg" viewBox="0 0 210 63" preserveAspectRatio="xMidYMid meet" color-interpolation-filters="sRGB">
    <g fill="rgb(252,252,252)">
        <g  opacity="1">
            <g>
                <rect fill="rgb(252,252,252)" fill-opacity="0" stroke-width="2" x="0" y="0" width="60" height="61"></rect>
                <svg x="0" y="0" width="60" height="61.65544880028773">
                    <svg xmlns="http://www.w3.org/2000/svg" viewBox="0 0 80.45999908447266 82.68000030517578">
                        <g>
                            <g>
                                <path fill="rgb(252,252,252)" d="M43.75 0h36.71v82.68H43.75z"></path>
                                <path fill="rgb(66,138,237)"  d="M80.25 27.95H36.71V0H0v82.68h36.71V59.21h43.54V27.95z"></path>
                            </g>
                        </g>
                    </svg>
                </svg>
            </g>
        </g>
        <g transform="translate(67,0)">
            <g transform="matrix(1,0,0,1,0,0)" opacity="1">
                <g transform="scale(1)">
                    <g>
                        <path d="M44.9 5.1L44.9 5.1 32.65-17.7 19.2-17.7 19.2 0 31.6-6.35 33.1-3.4 18.3 4.15Q17.95 4.35 17.55 4.35L17.55 4.35Q17.1 4.35 16.7 4.1L16.7 4.1Q15.9 3.6 15.9 2.7L15.9 2.7 15.9-38Q15.9-38.7 16.38-39.18 16.85-39.65 17.55-39.65L17.55-39.65 45-39.65Q45.7-39.65 46.18-39.18 46.65-38.7 46.65-38L46.65-38 46.65-19.3Q46.65-18.6 46.18-18.15 45.7-17.7 45-17.7L45-17.7 36.4-17.7 39.7-11.5 46.45-15.6 48.15-12.8 41.25-8.6 47.8 3.55 44.9 5.1ZM7.7 4.35L7.7 4.35 4.4 4.35 4.4-19.75Q4.4-20.25 4.75-20.8L4.75-20.8 12.45-30.3 15-28.2 7.7-19.2 7.7 4.35ZM13.3-38.2L4.8-27.7 2.25-29.75 10.75-40.25 13.3-38.2ZM43.35-30.3L43.35-36.35 19.2-36.35 19.2-30.3 43.35-30.3ZM19.2-27L19.2-20.95 43.35-20.95 43.35-27 19.2-27ZM94.95 4.3L94.95 4.3 84.15 4.3 84.15 1.05 93.3 1.05 93.3-2.55 68.6-2.55 68.6 4.3 65.35 4.3 65.35-18.5Q65.35-19.2 65.83-19.65 66.3-20.1 67-20.1L67-20.1 94.95-20.1Q95.65-20.1 96.1-19.65 96.55-19.2 96.55-18.5L96.55-18.5 96.55 2.65Q96.55 3.35 96.1 3.83 95.65 4.3 94.95 4.3L94.95 4.3ZM64.95-25.45L63.55-23.15 62.1-24 62.1 4.2 58.85 4.2 58.85-40.4 62.1-40.4 62.1-27.8 65.25-25.95 65.2-25.85 79.3-25.85 79.3-28.7 65.8-28.7 65.8-32 79.3-32 79.3-34.85 64.95-34.85 64.95-38.15 79.3-38.15 79.3-40.35 82.6-40.35 82.6-38.15 96.95-38.15 96.95-34.85 82.6-34.85 82.6-32 96.1-32 96.1-28.7 82.6-28.7 82.6-25.85 97.4-25.85 97.4-22.6 64.95-22.6 64.95-25.45ZM56.5-38.65L55.45 0.4 52.2 0.3 53.25-38.7 56.5-38.65ZM93.3-12.9L93.3-16.85 68.6-16.85 68.6-12.9 93.3-12.9ZM68.6-9.65L68.6-5.85 93.3-5.85 93.3-9.65 68.6-9.65ZM146.7 4.65L146.7 4.65 128.95-1.25 107.6 4.65 106.75 1.5 123.35-3.1 111.7-7 112.75-10.1 129-4.7 142.25-8.35 142.25-10.85 111.3-10.85 105.65 0.95 102.7-0.4 110.7-17.15 103.3-17.15 103.3-20.45 112.3-20.45 114.45-24.95 117.4-23.5 115.9-20.45 146.8-20.45 146.8-17.15 114.35-17.15 112.85-14.1 143.85-14.1Q144.55-14.1 145.03-13.63 145.5-13.15 145.5-12.45L145.5-12.45 145.5-7.1Q145.5-6.55 145.18-6.1 144.85-5.65 144.3-5.5L144.3-5.5 134.6-2.8 147.75 1.55 146.7 4.65ZM146.85-21.4L146.85-21.4 143.55-21.4 143.55-25.9 106.5-25.9 106.5-21.4 103.25-21.4 103.25-27.5Q103.25-28.2 103.7-28.68 104.15-29.15 104.85-29.15L104.85-29.15 108.95-29.15 106.2-33.95 109.05-35.6 112.15-30.15 110.35-29.15 123.4-29.15 120.65-33.95 123.5-35.6 126.6-30.15 124.8-29.15 134.5-29.15 138.2-35.6 141.05-33.95 138.3-29.15 145.2-29.15Q145.9-29.15 146.38-28.68 146.85-28.2 146.85-27.5L146.85-27.5 146.85-21.4ZM146.6-37L103.55-35.6 103.45-38.85 146.5-40.25 146.6-37Z" transform="translate(-2.25, 40.400001525878906)"></path>
                    </g>
                </g>
            </g>
            <g fill="rgb(252,252,252)" transform="matrix(1,0,0,1,5,51.5)" opacity="1">
                <rect x="0" height="1" y="4.960000038146973" width="35.545000076293945"></rect>
                <rect height="1" y="4.960000038146973" width="35.545000076293945" x="99.95499992370605"></rect>
                <g transform="translate(38.545000076293945,0)">
                    <g transform="scale(1)">
                        <path d="M3.98-8.81L3.98-8.81L8.11-8.81Q8.81-8.81 9.47-8.86L9.47-8.86Q9.61-8.86 9.61-8.86L9.61-8.86Q9.52-8.30 9.52-7.55L9.52-7.55L9.52-4.73Q9.52-3.56 9.61-3.28L9.61-3.28Q9-3.38 8.06-3.38L8.06-3.38L4.41-3.38Q2.81-3.38 2.48-3.28L2.48-3.28Q2.58-3.94 2.58-4.92L2.58-4.92L2.58-7.69Q2.58-8.72 2.48-8.86L2.48-8.86Q2.48-8.86 2.58-8.86L2.58-8.86Q3.23-8.81 3.98-8.81ZM8.53-7.88L3.56-7.88L3.56-4.27L8.53-4.27L8.53-7.88ZM4.08-2.72L4.08-2.72Q4.27-2.63 4.59-2.48L4.59-2.48Q5.39-2.11 5.34-2.02L5.34-2.02Q5.34-1.92 5.16-1.88L5.16-1.88Q4.88-1.78 4.69-1.59L4.69-1.59Q4.45-1.36 4.03-0.98L4.03-0.98Q2.77 0.14 1.59 1.08L1.59 1.08Q1.27 0.70 0.75 0.33L0.75 0.33Q0.61 0.23 0.61 0.23L0.61 0.23Q2.63-0.56 4.08-2.72ZM7.03-2.02L7.83-2.63Q8.53-2.11 10.88-0.14L10.88-0.14Q11.20 0.09 11.34 0.23L11.34 0.23Q10.88 0.47 10.36 0.98L10.36 0.98Q9.28-0.38 7.03-2.02L7.03-2.02ZM21.89-9.61L21.89-9.61Q22.64-8.58 22.55-8.44L22.55-8.44Q22.50-8.44 22.03-8.44L22.03-8.44Q20.06-8.48 18-8.39L18-8.39Q17.81-7.88 17.72-7.59L17.72-7.59L19.83-7.59Q20.11-7.59 21-7.64L21-7.64Q21.61-7.64 21.75-7.64L21.75-7.64L21.75-6.66Q20.95-6.75 19.83-6.75L19.83-6.75L17.48-6.75Q17.39-6.52 17.20-6.09L17.20-6.09L21.33-6.09Q22.83-6.14 23.44-6.19L23.44-6.19L23.44-5.20Q23.25-5.20 22.78-5.20L22.78-5.20Q21.89-5.25 21.33-5.25L21.33-5.25L16.78-5.25Q16.59-4.92 16.36-4.64L16.36-4.64Q16.50-4.59 17.67-4.59L17.67-4.59L19.64-4.59Q20.77-4.59 21.70-4.59L21.70-4.59Q21.80-4.59 21.80-4.59L21.80-4.59Q21.84-4.55 21.80-4.45L21.80-4.45Q21.70-3.61 21.70-2.81L21.70-2.81L21.70-0.94Q21.70 0.28 21.80 1.03L21.80 1.03L20.63 1.03Q20.72 0.70 20.72 0.14L20.72 0.14L16.22 0.14Q16.22 0.56 16.27 1.03L16.27 1.03L15.14 1.03Q15.14 0.98 15.19 0.52L15.19 0.52Q15.23-0.66 15.23-1.08L15.23-1.08L15.23-3.33Q14.44-2.44 13.17-1.59L13.17-1.59Q12.94-2.02 12.38-2.44L12.38-2.44Q14.67-3.56 15.75-5.25L15.75-5.25L14.34-5.25Q13.17-5.25 12.70-5.20L12.70-5.20L12.70-6.14Q12.89-6.14 13.31-6.14L13.31-6.14Q14.02-6.09 14.34-6.09L14.34-6.09L16.17-6.09Q16.27-6.28 16.41-6.52L16.41-6.52Q16.50-6.70 16.55-6.75L16.55-6.75L15.75-6.75Q14.02-6.75 14.02-6.70L14.02-6.70L14.02-7.64Q14.20-7.64 14.72-7.64L14.72-7.64Q15.47-7.59 15.80-7.59L15.80-7.59L16.83-7.59Q16.92-7.97 17.02-8.34L17.02-8.34Q16.59-8.34 15.66-8.34L15.66-8.34Q14.44-8.30 13.73-8.30L13.73-8.30L13.22-9.33Q14.91-9.09 17.34-9.14L17.34-9.14Q19.83-9.23 21.89-9.61ZM20.72-3.84L16.22-3.84L16.22-3.14L20.72-3.14L20.72-3.84ZM20.72-1.78L20.72-2.48L16.22-2.48L16.22-1.78L20.72-1.78ZM20.72-1.13L16.22-1.13L16.22-0.38L20.72-0.38L20.72-1.13ZM26.48-9.61L26.48-9.61Q27.75-9.52 27.80-9.38L27.80-9.38Q27.80-9.33 27.70-9.19L27.70-9.19Q27.52-8.95 27.47-8.81L27.47-8.81Q27.23-7.97 27.09-7.08L27.09-7.08L28.03-7.08Q28.92-7.08 29.39-7.17L29.39-7.17Q28.92-3.84 28.27-1.97L28.27-1.97Q28.41-1.88 28.69-1.69L28.69-1.69Q29.72-1.03 30-0.75L30-0.75L29.30 0Q28.59-0.61 27.89-1.08L27.89-1.08Q27.14 0.09 25.36 1.08L25.36 1.08Q25.08 0.56 24.52 0.19L24.52 0.19Q26.34-0.28 27.19-1.64L27.19-1.64Q26.95-1.78 25.17-2.81L25.17-2.81Q25.64-3.70 26.06-6.19L26.06-6.19L25.88-6.19Q25.17-6.19 24.61-6.05L24.61-6.05L24.61-7.17Q25.27-7.08 25.97-7.08L25.97-7.08L26.20-7.08Q26.20-7.13 26.25-7.31L26.25-7.31Q26.48-9 26.48-9.61ZM35.20-8.86L35.20-8.86L35.20-7.73Q34.64-7.69 33-6.09L33-6.09L33-4.83L33.80-4.83Q34.88-4.83 35.44-4.92L35.44-4.92L35.44-3.80Q34.73-3.89 33.80-3.89L33.80-3.89L33-3.89L33 0.19Q32.95 1.17 31.03 1.08L31.03 1.08Q31.03 0.38 30.38-0.19L30.38-0.19Q32.16 0.14 32.02-0.66L32.02-0.66L32.02-3.84L31.08-3.84Q30.05-3.84 29.25-3.75L29.25-3.75L29.25-4.92Q29.81-4.83 31.13-4.83L31.13-4.83L32.02-4.83L32.02-6.23Q32.48-6.61 33.84-7.92L33.84-7.92L31.08-7.92Q30.19-7.92 29.53-7.83L29.53-7.83L29.53-8.81Q29.91-8.72 31.03-8.72L31.03-8.72L33.56-8.72Q34.64-8.72 35.20-8.86ZM28.27-6.19L28.27-6.19L26.91-6.19Q26.81-5.81 26.67-5.11L26.67-5.11Q26.39-3.75 26.25-3.19L26.25-3.19Q26.48-3.05 27.14-2.67L27.14-2.67Q27.42-2.53 27.52-2.48L27.52-2.48Q27.98-3.84 28.27-6.19ZM45.89-9.61L45.89-9.61Q46.64-8.58 46.55-8.44L46.55-8.44Q46.50-8.44 46.03-8.44L46.03-8.44Q44.06-8.48 42-8.39L42-8.39Q41.81-7.88 41.72-7.59L41.72-7.59L43.83-7.59Q44.11-7.59 45-7.64L45-7.64Q45.61-7.64 45.75-7.64L45.75-7.64L45.75-6.66Q44.95-6.75 43.83-6.75L43.83-6.75L41.48-6.75Q41.39-6.52 41.20-6.09L41.20-6.09L45.33-6.09Q46.83-6.14 47.44-6.19L47.44-6.19L47.44-5.20Q47.25-5.20 46.78-5.20L46.78-5.20Q45.89-5.25 45.33-5.25L45.33-5.25L40.78-5.25Q40.59-4.92 40.36-4.64L40.36-4.64Q40.50-4.59 41.67-4.59L41.67-4.59L43.64-4.59Q44.77-4.59 45.70-4.59L45.70-4.59Q45.80-4.59 45.80-4.59L45.80-4.59Q45.84-4.55 45.80-4.45L45.80-4.45Q45.70-3.61 45.70-2.81L45.70-2.81L45.70-0.94Q45.70 0.28 45.80 1.03L45.80 1.03L44.63 1.03Q44.72 0.70 44.72 0.14L44.72 0.14L40.22 0.14Q40.22 0.56 40.27 1.03L40.27 1.03L39.14 1.03Q39.14 0.98 39.19 0.52L39.19 0.52Q39.23-0.66 39.23-1.08L39.23-1.08L39.23-3.33Q38.44-2.44 37.17-1.59L37.17-1.59Q36.94-2.02 36.38-2.44L36.38-2.44Q38.67-3.56 39.75-5.25L39.75-5.25L38.34-5.25Q37.17-5.25 36.70-5.20L36.70-5.20L36.70-6.14Q36.89-6.14 37.31-6.14L37.31-6.14Q38.02-6.09 38.34-6.09L38.34-6.09L40.17-6.09Q40.27-6.28 40.41-6.52L40.41-6.52Q40.50-6.70 40.55-6.75L40.55-6.75L39.75-6.75Q38.02-6.75 38.02-6.70L38.02-6.70L38.02-7.64Q38.20-7.64 38.72-7.64L38.72-7.64Q39.47-7.59 39.80-7.59L39.80-7.59L40.83-7.59Q40.92-7.97 41.02-8.34L41.02-8.34Q40.59-8.34 39.66-8.34L39.66-8.34Q38.44-8.30 37.73-8.30L37.73-8.30L37.22-9.33Q38.91-9.09 41.34-9.14L41.34-9.14Q43.83-9.23 45.89-9.61ZM44.72-3.84L40.22-3.84L40.22-3.14L44.72-3.14L44.72-3.84ZM44.72-1.78L44.72-2.48L40.22-2.48L40.22-1.78L44.72-1.78ZM44.72-1.13L40.22-1.13L40.22-0.38L44.72-0.38L44.72-1.13ZM55.41-9.75L55.41-9.75Q56.67-9.38 56.67-9.23L56.67-9.23Q56.67-9.19 56.58-9.14L56.58-9.14Q56.39-9.05 56.34-8.86L56.34-8.86Q55.92-8.16 55.69-7.41L55.69-7.41L57.42-7.41Q58.45-7.41 59.02-7.45L59.02-7.45Q58.64-1.31 58.55-0.23L58.55-0.23Q58.41 1.08 55.97 1.17L55.97 1.17Q55.83 0.47 55.41-0.05L55.41-0.05Q56.67 0.19 57.33-0.09L57.33-0.09Q57.66-0.05 57.80-4.27L57.80-4.27Q57.89-5.77 57.94-6.66L57.94-6.66L55.36-6.66Q54.89-5.77 54.23-4.59L54.23-4.59Q53.81-4.88 53.39-4.97L53.39-4.97L53.39-0.75Q53.39 0.42 53.44 0.75L53.44 0.75L52.36 0.75Q52.41 0.33 52.41-0.38L52.41-0.38L50.11-0.38Q50.11 0.33 50.16 0.84L50.16 0.84L49.08 0.84Q49.13 0.42 49.13-0.70L49.13-0.70L49.13-5.72Q49.13-5.91 49.08-6.61L49.08-6.61Q49.08-7.22 49.08-7.36L49.08-7.36Q49.78-7.31 50.11-7.31L50.11-7.31L50.44-7.31Q50.58-8.06 50.67-9.61L50.67-9.61Q51.98-9.47 51.89-9.28L51.89-9.28Q51.89-9.19 51.80-9.09L51.80-9.09Q51.70-9 51.66-8.86L51.66-8.86Q51.52-8.53 51.38-7.92L51.38-7.92Q51.28-7.55 51.23-7.31L51.23-7.31L52.03-7.31Q52.41-7.31 53.44-7.36L53.44-7.36Q53.39-7.03 53.39-5.86L53.39-5.86L53.39-5.20Q54.84-6.84 55.41-9.75ZM52.41-6.56L50.11-6.56L50.11-4.13L52.41-4.13L52.41-6.56ZM54.61-4.17L55.41-4.64Q55.69-4.27 56.39-2.91L56.39-2.91Q56.58-2.63 56.63-2.48L56.63-2.48L55.73-2.02Q55.59-2.58 54.61-4.17L54.61-4.17ZM52.41-3.42L50.11-3.42L50.11-1.13L52.41-1.13L52.41-3.42Z" transform="translate(-0.609375, 9.75)"></path>
                    </g>
                </g>
            </g>
        </g>
    </g>
</svg>